<svg width="299" height="53" viewBox="0 0 299 53" fill="none" xmlns="http://www.w3.org/2000/svg">
<path fill-rule="evenodd" clip-rule="evenodd" d="M22.8026 0.522903C28.3823 0.522903 33.3297 1.60606 37.6447 3.77237C41.9597 5.93869 45.3075 9.00141 47.7254 12.9979C50.1061 16.957 51.2965 21.5511 51.2965 26.7428C51.2965 31.9345 50.1061 36.5285 47.7254 40.4877C45.3447 44.4468 41.9969 47.5095 37.6447 49.7132C33.3297 51.8795 28.3823 52.9626 22.8026 52.9626H0V0.522903H22.8026ZM9.67156 44.6709H22.3562C26.1876 44.6709 29.5355 43.9239 32.4741 42.4672C35.3756 41.0106 37.6075 38.8816 39.1698 36.1924C40.7321 33.4658 41.5133 30.3284 41.5133 26.7428C41.5133 23.1572 40.7321 19.9824 39.1698 17.2932C37.6075 14.5666 35.3756 12.475 32.4741 11.0183C29.5727 9.56166 26.1876 8.81466 22.3562 8.81466H9.67156V44.6709ZM287.766 52.8879C283.191 48.8541 277.202 46.4263 270.655 46.4263C264.108 46.4263 258.119 48.8541 253.544 52.8879H242.31L242.57 52.5144L250.01 38.7696L261.579 17.3679L267.158 27.6392L260.835 39.3298C263.959 38.396 267.233 37.9105 270.655 37.9105C274.077 37.9105 277.388 38.4334 280.512 39.3672L276.941 32.7188L276.197 31.3369L273.631 26.5934L270.655 21.1029L265.075 10.8316L267.307 6.72304L270.692 0.485554L298.74 52.5144L299 52.8879H287.766ZM169.661 52.4024C165.086 48.3686 159.134 45.9408 152.55 45.9408C146.003 45.9408 140.014 48.3686 135.439 52.4024H124.205L124.466 52.0289L131.905 38.284L143.474 16.8823L149.054 27.1536L142.73 38.8443C145.855 37.9105 149.128 37.4249 152.55 37.4249C155.973 37.4249 159.283 37.9105 162.408 38.8816L159.097 32.7562V32.7188L158.353 31.3369L155.117 25.3608L152.55 20.6173L146.971 10.346L149.202 6.23749L152.587 0L180.635 52.0289L180.895 52.4024H169.661ZM98.5755 52.8879L87.9368 37.5743H87.8624L82.3199 29.6561H85.4817C89.7223 29.6561 92.9214 28.7223 95.1161 26.9295C97.3108 25.0994 98.3895 22.5222 98.3895 19.198C98.3895 15.8739 97.3108 13.2967 95.1161 11.5039C92.9214 9.71106 89.7223 8.81466 85.4817 8.81466H67.7009L61.9352 0.597604H85.8909C90.4291 0.597604 94.3721 1.34461 97.72 2.83862C101.068 4.33263 103.634 6.49894 105.42 9.26286C107.206 12.0641 108.098 15.3883 108.098 19.2354C108.098 23.1945 107.131 26.556 105.234 29.432C103.337 32.2706 100.584 34.3996 97.0132 35.7815L109.028 53L98.5755 52.8879ZM187.963 8.73996V0.522903H236.693V8.73996H217.164V52.8879H207.492V8.73996H187.963Z" fill="black"/>
</svg>
