<svg xmlns="http://www.w3.org/2000/svg" width="2119.799" height="421.398" viewBox="0 0 2119.799 421.398">
  <g id="helpscout-logo" transform="translate(-24.9 -265.9)">
    <path id="Path_2336" data-name="Path 2336" d="M302.179,290.206l-.706.353V403.237H194.445V290.559l-.707-.353a118.64,118.64,0,0,0-47.332,0l-.707.353V549.826l.707.353a130.676,130.676,0,0,0,23.313,2.472,110.043,110.043,0,0,0,23.666-2.472l.706-.353V444.565H301.119V549.826l.706.353a118.653,118.653,0,0,0,47.332,0l.706-.353V290.559l-.706-.353a116.9,116.9,0,0,0-46.979,0ZM467.841,362.97c-56.163,0-89.366,35.323-89.366,94.664,0,30.73,7.065,55.1,21.193,72.058,15.542,18.368,38.5,27.9,68.879,27.9,51.571,0,78.062-30.73,81.6-61.461v-.706l-.707-.354a82.582,82.582,0,0,0-39.561-3.179h-.353v.353c-3.179,18.015-18.014,28.965-40.268,28.965-30.73,0-45.919-16.954-46.272-51.571H552.968v-.706c3.885-34.263-3.179-62.168-19.781-80.889C518,371.8,495.393,362.97,467.841,362.97Zm-.353,33.556c12.716,0,23.666,3.885,31.084,12.01s11.3,20.134,10.6,34.616H422.982C423.688,413.481,439.936,396.526,467.488,396.526ZM584.405,290.206l-.707.353V549.826l.707.353a116.069,116.069,0,0,0,22.253,2.472,95.536,95.536,0,0,0,22.253-2.472l.706-.353V290.559l-.706-.353c-14.482-3.533-29.671-3.179-44.506,0Zm173.08,72.764c-19.427,0-39.914,7.418-59.341,21.9l-2.826-13.776-.353-.353a51.846,51.846,0,0,0-31.084,0l-.353.353V629.3l.707.354a116.068,116.068,0,0,0,22.253,2.473,93.46,93.46,0,0,0,22.253-2.473l.706-.354V543.115A90.254,90.254,0,0,0,759.605,557.6c50.864,0,81.595-36.029,81.595-96.784-.707-61.814-30.731-97.843-83.715-97.843Zm-49.1,51.218c13.776-9.184,26.139-13.776,39.914-13.776,31.084,0,48.039,21.547,48.039,60.755,0,38.5-16.6,58.989-48.392,58.989-13.776,0-26.492-4.239-39.208-13.422l-.353-92.545Zm327.086-3.885c-7.771-3.179-14.835-5.652-21.547-7.771-35.323-12.716-56.516-20.134-56.869-39.208a29.764,29.764,0,0,1,8.477-22.607c8.831-9.184,23.666-13.776,42.034-13.776,18.015,0,31.79,4.945,40.267,13.776,7.064,7.418,10.244,18.014,9.184,30.731v.706l.706.353c15.542,3.179,30.731,2.826,47.332-1.06l.707-.353v-.706c1.06-21.547-5.651-40.621-19.074-54.75-16.6-17.661-43.446-26.845-77.356-27.2h-1.06c-62.874,0-100.669,27.9-101.022,74.884-.353,46.626,42.74,62.167,68.526,71.351l3.885,1.413c8.477,3.179,16.6,5.651,23.666,8.477,34.969,12.009,55.809,19.427,56.516,37.8q.53,14.305-8.477,23.312c-8.477,8.478-22.96,12.716-42.387,12.716-21.547,0-37.8-5.651-47.332-15.542-6.712-7.417-9.537-17.308-8.477-28.611v-.707l-.707-.353a112.661,112.661,0,0,0-47.332.706l-.353.354v.706c-1.413,20.84,4.945,39.561,18.721,54.043,18.014,19.428,48.039,29.671,86.187,29.318,37.442,0,99.256-10.244,99.963-75.59-.706-44.507-38.148-58.636-74.177-72.411Zm186.856-9.537c31.084,0,38.5,20.134,39.914,32.144v.707h.707c14.482,2.119,27.9,1.413,40.974-2.473l.706-.353v-.706c-1.413-18.015-9.184-34.616-21.9-46.273-14.482-13.422-35.676-20.84-60.4-20.84-58.989,0-91.485,34.616-91.485,97.49,0,62.521,32.143,97.137,90.779,97.137,25.079,0,46.272-7.418,61.461-21.193a70.135,70.135,0,0,0,21.547-44.153v-.706l-.706-.353c-12.363-4.239-26.139-4.945-40.974-2.473h-.353v.354c-3.885,28.258-31.437,30.377-39.914,30.377-31.79,0-46.626-19.074-46.626-59.7-.353-40.268,14.482-58.989,46.272-58.989ZM1416.6,362.97c-57.929,0-90.072,34.616-90.072,97.49,0,62.521,32.143,97.137,90.072,97.137s90.072-34.616,90.072-97.137C1506.676,397.586,1474.532,362.97,1416.6,362.97Zm46.273,97.843c0,40.268-15.189,59.7-46.273,59.7s-46.272-19.427-46.272-59.7c0-40.974,14.482-60.048,46.272-60.048C1447.687,400.765,1462.876,420.192,1462.876,460.813Zm188.975-89.366-.707.354V500.728c-14.482,12.716-27.9,18.014-43.446,18.014-21.547,0-31.084-12.363-31.084-41.681V371.094l-.706-.353a94.79,94.79,0,0,0-44.506,0l-.706.353V487.305c0,44.153,23.666,69.585,65.346,69.585,22.253,0,41.681-8.477,62.521-27.905l4.239,20.134.353.353a62,62,0,0,0,32.143,0l.707-.353V370.741l-.707-.353a95.585,95.585,0,0,0-43.446,1.06ZM1836.589,515.21l-.354-.706-.707.353c-17.661,3.886-27.9,3.886-33.91-1.059-4.946-3.886-7.417-10.95-7.417-22.253V408.889h35.675l.353-.706a91.871,91.871,0,0,0,0-36.736l-.353-.706H1794.2v-49.1l-.707-.353a103.392,103.392,0,0,0-44.153,0l-.707.353.353,49.1h-22.606l-.354.706a80.66,80.66,0,0,0,0,36.736l.354.706h22.606l.353,79.475c0,22.253,1.413,44.506,16.6,57.576,8.478,6.711,20.487,10.244,36.029,10.244,9.537,0,20.841-1.413,33.557-3.886h.354l.353-.353a71.921,71.921,0,0,0,.354-36.735Z" transform="translate(305.896 55.17)" fill="#2a3b47"/>
    <path id="Path_2337" data-name="Path 2337" d="M50.332,511.038,172.9,388.469a86.56,86.56,0,0,0,.706-122.569L51.039,388.469a86.56,86.56,0,0,0-.707,122.569Zm296.709-71.7L224.472,561.9a86.56,86.56,0,0,0-.706,122.569L346.335,561.9a86.559,86.559,0,0,0,.706-122.569Zm-.706-50.512a86.56,86.56,0,0,0,.706-122.569l-296.356,296a86.987,86.987,0,0,0-.706,122.922Z" transform="translate(0 0)" fill="#1087d8"/>
  </g>
</svg>
