<svg width="159" height="39" viewBox="0 0 159 39" fill="none" xmlns="http://www.w3.org/2000/svg">
<path d="M103.053 35.099C102.129 33.9632 101.626 32.5448 101.626 31.0817V20.5157C101.626 13.0171 98.0921 8.72363 91.8406 8.72363C83.5171 8.72363 81.9054 13.2578 79.6903 17.1146C79.5827 17.3015 79.3457 17.3671 79.1561 17.2659L78.693 17.018C78.4952 16.9123 78.4232 16.6634 78.5353 16.4683L79.1671 15.3635C79.5663 14.678 79.7805 13.8995 79.7805 13.1055V11.5112C79.7805 10.4821 78.9465 9.64888 77.9182 9.64888H68.8545C67.4889 9.64888 66.7542 11.2514 67.6439 12.286L68.9648 13.822C70.2957 15.3708 71.0286 17.3453 71.0286 19.3872V30.3552C71.0286 31.5721 70.7688 32.7745 70.2656 33.8829L69.2155 36.1965C68.736 37.2539 69.509 38.4526 70.6694 38.4526H81.992C83.3402 38.4526 84.0813 36.8847 83.2263 35.8428L82.3102 34.7261C81.3749 33.5867 80.8635 32.1582 80.8635 30.6852V24.6333C80.8635 22.5202 81.3694 20.4245 82.4286 18.5959C83.714 16.3772 85.3931 15.2432 87.4942 15.2432C90.3219 15.2432 91.8424 17.2577 91.8424 20.8958V30.7262C91.8424 31.9139 91.5945 33.0881 91.115 34.1746L90.2162 36.2111C89.7504 37.2667 90.5234 38.4526 91.6765 38.4526H102.425C103.769 38.4526 104.511 36.892 103.664 35.8492L103.055 35.1008L103.053 35.099Z" fill="#240642"/>
<path d="M123.239 34.2375C122.877 34.3095 122.522 34.3597 122.21 34.3669C119.289 34.3669 117.884 32.5283 117.884 28.7462V13.7172H123.203C123.818 13.7172 124.318 13.2185 124.318 12.6023V10.7819C124.318 10.1666 123.818 9.66707 123.203 9.66707H116.396C116.205 9.66707 116.051 9.5121 116.051 9.32159V8.81202C116.051 8.62241 116.204 8.46744 116.394 8.46653H117.085C117.526 8.46744 117.884 8.11011 117.884 7.66891V3.69265C117.884 2.93422 117.27 2.31982 116.511 2.31982H112.597C111.884 2.31982 111.253 2.78199 111.041 3.46293C110.59 4.95426 109.502 9.66707 105.964 9.66707H104.913C104.3 9.66707 103.801 10.1657 103.801 10.7819V12.6023C103.801 13.2185 104.3 13.7172 104.913 13.7172H108.156V29.1263C108.156 35.3952 111.346 38.8546 117.128 38.8546C120.013 38.8546 122.63 37.8008 124.214 35.9011C124.83 35.1591 124.189 34.0515 123.239 34.2375Z" fill="#240642"/>
<path d="M66.4053 33.1028C64.6815 33.4136 63.5165 32.0636 63.5165 29.9451V19.7474C63.5165 12.4749 58.9067 8.56787 49.9533 8.56787C41.9351 8.56787 36.4584 11.6508 36.4438 16.3062C36.4402 17.1421 36.7538 17.9607 37.2159 18.7501C37.9589 19.8905 39.3016 20.6553 40.8394 20.6553C43.1803 20.6553 45.0782 18.8896 45.0782 16.7118C45.0709 14.4785 43.1849 13.3463 42.6133 13.1339C43.0199 12.7875 44.7756 11.4348 47.3681 11.4348C51.4893 11.4348 53.6962 14.5578 53.6962 19.4219V21.3554C50.6032 21.3554 47.1329 21.6662 44.6926 22.2605C38.7209 23.565 35.5742 26.9633 35.5742 31.1967C35.5742 35.9705 39.3736 38.9532 45.3954 38.9532C49.575 38.9532 53.0481 37.491 54.6752 35.0462C55.7035 37.1109 57.9833 38.4117 60.9158 38.4117C64.7079 38.4117 66.6942 36.4336 67.3214 34.0818C67.4837 33.4127 66.9777 32.9925 66.4071 33.1037L66.4053 33.1028ZM53.6953 30.8156C53.3726 33.0918 51.7992 34.4501 49.5194 34.4501C47.0208 34.4501 45.3398 32.7691 45.3398 30.1092C45.3398 28.0481 46.2614 26.245 48.2723 25.3772C49.6269 24.7783 51.7418 24.4529 53.6953 24.3991V30.8156Z" fill="#240642"/>
<path d="M157.112 33.1028C155.388 33.4136 154.223 32.0636 154.223 29.9451V19.7474C154.223 12.4749 149.614 8.56787 140.66 8.56787C132.642 8.56787 127.165 11.6508 127.151 16.3062C127.147 17.1421 127.461 17.9607 127.923 18.7501C128.666 19.8905 130.009 20.6553 131.546 20.6553C133.887 20.6553 135.785 18.8896 135.785 16.7118C135.778 14.4785 133.892 13.3463 133.32 13.1339C133.727 12.7875 135.483 11.4348 138.075 11.4348C142.196 11.4348 144.403 14.5578 144.403 19.4219V21.3554C141.31 21.3554 137.84 21.6662 135.4 22.2605C129.428 23.565 126.281 26.9633 126.281 31.1967C126.281 35.9705 130.081 38.9532 136.102 38.9532C140.282 38.9532 143.755 37.491 145.382 35.0462C146.41 37.1109 148.69 38.4117 151.623 38.4117C155.415 38.4117 157.401 36.4336 158.028 34.0818C158.191 33.4127 157.685 32.9925 157.114 33.1037L157.112 33.1028ZM144.402 30.8156C144.08 33.0918 142.506 34.4501 140.226 34.4501C137.728 34.4501 136.047 32.7691 136.047 30.1092C136.047 28.0481 136.968 26.245 138.979 25.3772C140.334 24.7783 142.449 24.4529 144.402 24.3991V30.8156Z" fill="#240642"/>
<path d="M37.1141 0.0482757H32.1925C31.1333 0.0482757 30.4988 1.22511 31.0813 2.11024L31.9245 3.391C32.6447 4.48579 32.786 5.86317 32.3019 7.08103L23.4725 29.2878C23.0659 30.357 22.6548 31.0899 22.467 31.2704C22.3667 31.3661 22.1999 31.3953 22.0696 31.2987L21.6038 30.9277C21.4561 30.8165 21.4643 30.6551 21.6001 30.5038C21.859 30.1601 22.0194 29.7454 22.1106 29.368C22.2191 28.9149 22.1826 28.4391 22.0167 28.0034L14.54 8.23872C14.0459 6.93427 14.066 5.49125 14.5938 4.20047L15.3923 2.2488C15.8226 1.19867 15.0496 0.0473633 13.9147 0.0473633H1.86646C0.242959 0.0473633 -0.60298 1.97898 0.496372 3.17222L1.263 4.00448C2.67138 5.53227 3.7844 7.30801 4.54739 9.24145L15.2829 37.2968C15.5637 38.0087 16.251 38.4764 17.0158 38.4764H22.9602C23.7241 38.4764 24.4105 38.0106 24.6912 37.3005L38.5972 2.23422C39.0129 1.18591 38.2408 0.0491882 37.1132 0.0491882L37.1141 0.0482757Z" fill="#240642"/>
</svg>
